<?xml version="1.0" encoding="UTF-8" standalone="no"?>
<svg width="512px" height="512px" viewBox="0 0 512 512" version="1.1" xmlns="http://www.w3.org/2000/svg" xmlns:xlink="http://www.w3.org/1999/xlink">
    <!-- Generator: Sketch 43.2 (39069) - http://www.bohemiancoding.com/sketch -->
    <title>512</title>
    <desc>Created with Sketch.</desc>
    <defs></defs>
    <g id="Page-1" stroke="none" stroke-width="1" fill="none" fill-rule="evenodd">
        <g id="Desktop-HD-Copy-2" transform="translate(-576.000000, -17.000000)">
            <g id="512" transform="translate(576.000000, 17.000000)">
                <circle id="Oval-3" fill="#292D35" cx="256" cy="256" r="256"></circle>
                <polygon id="Path-57" fill="#FFFFFF" points="168 254 290.056527 398 376 398 252.256958 254"></polygon>
                <path d="M376,208.872828 C376,102.213526 263.664939,102 263.664939,102 L146,102 C146,102 178.599636,139.591797 196.563891,161.188829 C208.053882,153.316243 226.396511,143.021484 243.74927,143.021484 C271.844484,143.021484 293.081842,162.042969 293.081842,162.042969 C293.081842,162.042969 309.531197,163.709961 337.689053,172.970703 C359.046126,177.294922 360.21019,199.872828 360.21019,201.872828 C360.21019,201.872828 319.887181,192.421827 298.669544,205.507812 C277.451908,218.593798 274.226757,253.899902 274.226757,253.899902 L315.511138,302 C315.511138,302 376,276.128891 376,208.872828 Z" id="Path-58" fill="#FFFFFF"></path>
            </g>
        </g>
    </g>
</svg>